<?xml version="1.0" encoding="utf-8"?>
<!-- Generator: Adobe Illustrator 22.1.0, SVG Export Plug-In . SVG Version: 6.00 Build 0)  -->
<svg version="1.1" id="Livello_1" xmlns="http://www.w3.org/2000/svg" xmlns:xlink="http://www.w3.org/1999/xlink" x="0px" y="0px"
	 viewBox="0 0 85 50" style="enable-background:new 0 0 85 50;" xml:space="preserve">
<style type="text/css">
	.st0{fill:#333E48;}
	.st1{fill:#FF9900;}
</style>
<g id="Logos">
	<g id="logos_x2F_amazon_x5F_pay_x2F_fullcolor_x2F_positive_x2F_logo-amazonpay-primary-fullcolor-positive">
		<path id="Fill-1" class="st0" d="M59.86927,19.27205c-0.71272,0-1.3849,0.23079-2.01692,0.69226v4.19944
			c0.6418,0.48193,1.3042,0.72251,1.98705,0.72251c1.3844,0,2.07704-0.93322,2.07704-2.79954
			C61.91644,20.21061,61.23409,19.27205,59.86927,19.27205z M57.74686,19.07646c0.38127-0.33132,0.78796-0.58207,1.21956-0.75275
			c0.43109-0.17056,0.87298-0.2557,1.32415-0.2557c0.48206,0,0.91848,0.09011,1.30966,0.27083
			c0.39144,0.18047,0.72238,0.44151,0.99321,0.78262c0.27134,0.34124,0.47939,0.75504,0.62503,1.24192
			c0.14513,0.48688,0.21821,1.03604,0.21821,1.6481c0,0.62223-0.07791,1.18435-0.23334,1.68598
			c-0.15556,0.502-0.37377,0.92826-0.6549,1.27916c-0.28099,0.35153-0.62223,0.62452-1.02346,0.82049
			c-0.40135,0.19559-0.8482,0.29358-1.33953,0.29358c-0.90323,0-1.68102-0.29625-2.33312-0.88823v3.52205
			c0,0.20093-0.10027,0.30108-0.30108,0.30108h-0.88823c-0.20042,0-0.30069-0.10015-0.30069-0.30108V18.59454
			c0-0.20042,0.10027-0.30108,0.30069-0.30108h0.6624c0.20093,0,0.3162,0.10066,0.34657,0.30108L57.74686,19.07646
			L57.74686,19.07646z"/>
		<path id="Fill-2" class="st0" d="M67.19969,24.99187c0.33094,0,0.67701-0.06507,1.03832-0.19559
			c0.3612-0.13052,0.70777-0.32116,1.03871-0.57191V22.689c-0.25076-0.06024-0.51447-0.1079-0.79025-0.1431
			c-0.27617-0.03508-0.54433-0.053-0.80524-0.053c-1.13415,0-1.70072,0.43655-1.70072,1.30966
			c0,0.38165,0.1051,0.67523,0.31582,0.88061C66.50705,24.88892,66.80813,24.99187,67.19969,24.99187z M65.43848,19.60299
			c-0.02986,0.01029-0.06773,0.02275-0.11272,0.03787c-0.04537,0.01513-0.0882,0.02275-0.12823,0.02275
			c-0.13052,0-0.19559-0.09049-0.19559-0.27134V18.9861c0-0.14031,0.02008-0.23829,0.06012-0.29358
			c0.04015-0.05516,0.12073-0.10777,0.24096-0.1581c0.32115-0.14031,0.71717-0.25342,1.18931-0.33844
			c0.47124-0.08515,0.94301-0.12798,1.41463-0.12798c0.95331,0,1.65573,0.19559,2.10741,0.58665
			c0.45168,0.39156,0.67752,0.99867,0.67752,1.82145v5.14778c0,0.20093-0.10065,0.30108-0.3012,0.30108h-0.64714
			c-0.19115,0-0.30108-0.09532-0.33145-0.28595l-0.07524-0.49667c-0.36119,0.31099-0.75987,0.55195-1.19643,0.72251
			s-0.87082,0.2557-1.30203,0.2557c-0.72251,0-1.29442-0.20309-1.71572-0.6094c-0.42181-0.40669-0.63252-0.95051-0.63252-1.63336
			c0-0.73229,0.26104-1.31716,0.78262-1.75321c0.52209-0.43655,1.22452-0.65477,2.10728-0.65477
			c0.56212,0,1.19426,0.08502,1.89669,0.2557v-0.99334c0-0.54204-0.12023-0.92344-0.36132-1.14381
			c-0.24096-0.22101-0.66226-0.33145-1.26404-0.33145C66.94843,19.25693,66.21131,19.37233,65.43848,19.60299L65.43848,19.60299z"/>
		<path id="Fill-3" class="st0" d="M75.58306,27.26436c-0.27083,0.69264-0.58437,1.18931-0.94073,1.49039
			c-0.35585,0.3012-0.81998,0.45168-1.39201,0.45168c-0.32155,0-0.6075-0.03558-0.85786-0.10548
			c-0.11095-0.02987-0.19115-0.07803-0.24097-0.1431c-0.05032-0.06545-0.07523-0.16789-0.07523-0.30857v-0.39118
			c0-0.19063,0.07523-0.28595,0.22584-0.28595c0.04982,0,0.12505,0.00991,0.22571,0.02987
			c0.10027,0.02008,0.23576,0.03037,0.40631,0.03037c0.38127,0,0.67751-0.09049,0.88824-0.27083
			c0.21058-0.18085,0.40121-0.51192,0.5719-0.99384l0.28596-0.7675l-2.90515-7.1647
			c-0.07028-0.17056-0.10511-0.29078-0.10511-0.36119c0-0.12023,0.07003-0.18085,0.21072-0.18085h0.90285
			c0.16039,0,0.27083,0.02542,0.33146,0.07524c0.0601,0.05033,0.12022,0.1609,0.18033,0.33145l2.10741,5.84004l2.03204-5.84004
			c0.06011-0.17056,0.12022-0.28112,0.18034-0.33145c0.06062-0.04982,0.17068-0.07524,0.33144-0.07524h0.84274
			c0.1403,0,0.21072,0.06062,0.21072,0.18085c0,0.07041-0.0352,0.19064-0.10511,0.36119L75.58306,27.26436"/>
		<path id="Fill-4" class="st1" d="M34.76568,28.94309c-2.69545,1.98909-6.60309,3.04686-9.96805,3.04686
			c-4.71593,0-8.96277-1.7433-12.17637-4.64501c-0.2524-0.22787-0.02732-0.53899,0.27604-0.36259
			c3.46714,2.01756,7.75503,3.23266,12.18349,3.23266c2.9875,0,6.27138-0.61995,9.29321-1.90178
			C34.82948,28.12006,35.21164,28.61355,34.76568,28.94309"/>
		<path id="Fill-5" class="st1" d="M35.88738,27.66241c-0.34492-0.44126-2.27885-0.20906-3.14789-0.10498
			c-0.2632,0.03165-0.304-0.19839-0.06672-0.365c1.543-1.08357,4.07095-0.7708,4.36491-0.40796
			c0.29599,0.36602-0.07791,2.9007-1.52368,4.11022c-0.22241,0.18593-0.43401,0.0868-0.33539-0.15886
			C35.50407,29.92321,36.23243,28.10417,35.88738,27.66241"/>
		<path id="Fill-6" class="st0" d="M32.81523,19.46586V18.4128c0.00089-0.16039,0.12137-0.26702,0.26702-0.26651l4.71949-0.00051
			c0.15086,0,0.2721,0.10981,0.2721,0.26562v0.9031c-0.0014,0.15162-0.129,0.34912-0.35522,0.6629l-2.44483,3.4904
			c0.90742-0.02122,1.86746,0.11489,2.69189,0.57826c0.18593,0.10447,0.23575,0.25914,0.25037,0.41088v1.12373
			c0,0.15454-0.16954,0.33386-0.34772,0.24045c-1.45238-0.76089-3.38008-0.84388-4.9865,0.00953
			c-0.16407,0.08731-0.33577-0.08934-0.33577-0.24439v-1.06794c0-0.17106,0.0033-0.46324,0.17564-0.72365l2.83233-4.06345
			l-2.46606-0.00026C32.93711,19.73097,32.81612,19.62358,32.81523,19.46586"/>
		<path id="Fill-7" class="st0" d="M15.59975,26.04252h-1.43574c-0.13662-0.0089-0.24567-0.11146-0.25685-0.24274l0.00114-7.36893
			c0-0.14755,0.12379-0.26524,0.27706-0.26524l1.33711-0.00038c0.13993,0.00699,0.25215,0.11286,0.26092,0.24757v0.96194h0.02694
			c0.34848-0.93043,1.00528-1.36469,1.8897-1.36469c0.89789,0,1.4609,0.43427,1.86288,1.36469
			c0.34861-0.93043,1.13936-1.36469,1.98375-1.36469c0.60317,0,1.25984,0.24808,1.66183,0.80639
			c0.45562,0.62045,0.36221,1.51962,0.36221,2.3105l-0.0014,4.65048c0,0.14704-0.12379,0.26511-0.27706,0.26511h-1.43396
			c-0.14425-0.00915-0.25748-0.12315-0.25748-0.26447l-0.00051-3.90688c0-0.30972,0.02682-1.08522-0.04041-1.37982
			c-0.10714-0.49641-0.4288-0.63609-0.844-0.63609c-0.34861,0-0.71056,0.2327-0.85811,0.60469
			c-0.1473,0.3725-0.13408,0.99245-0.13408,1.41121v3.90624c0,0.14704-0.12379,0.26511-0.27668,0.26511H18.0128
			c-0.14425-0.00915-0.25787-0.12315-0.25787-0.26447l-0.0014-3.90688c0-0.82176,0.13395-2.03102-0.88442-2.03102
			c-1.0321,0-0.99181,1.17825-0.99181,2.03102l-0.00051,3.90624C15.8768,25.92445,15.75276,26.04252,15.59975,26.04252"/>
		<path id="Fill-8" class="st0" d="M42.14987,19.51441c-1.05879,0-1.12564,1.44184-1.12564,2.34138
			c0,0.89942-0.01335,2.82216,1.11255,2.82216c1.11267,0,1.16592-1.55075,1.16592-2.4963c0-0.6202-0.02681-1.36469-0.21465-1.95401
			C42.92728,19.71585,42.60549,19.51441,42.14987,19.51441z M42.13678,18.01005c2.13105,0,3.2835,1.8301,3.2835,4.15597
			c0,2.24822-1.27293,4.03193-3.2835,4.03193c-2.09089,0-3.23024-1.83022-3.23024-4.10946
			C38.90653,19.79338,40.05911,18.01005,42.13678,18.01005L42.13678,18.01005z"/>
		<path id="Fill-9" class="st0" d="M48.18398,26.04252h-1.43065c-0.14374-0.00915-0.25748-0.12315-0.25748-0.26447l-0.00241-7.37186
			c0.01207-0.13497,0.13116-0.24058,0.27591-0.24058l1.33165-0.00038c0.12544,0.00661,0.22889,0.09189,0.2552,0.20627v1.12729
			h0.02707c0.40224-1.00821,0.96474-1.48873,1.95655-1.48873c0.64333,0,1.27344,0.23245,1.67555,0.86853
			c0.37517,0.58919,0.37517,1.58138,0.37517,2.29486v4.63726c-0.01601,0.13039-0.13332,0.23181-0.27515,0.23181h-1.43929
			c-0.13294-0.00839-0.2402-0.10625-0.25558-0.23181v-4.00117c0-0.80639,0.09392-1.98515-0.89789-1.98515
			c-0.34861,0-0.67027,0.2327-0.83104,0.58919c-0.20105,0.4499-0.22813,0.89929-0.22813,1.39596v3.96788
			C48.46103,25.92445,48.33699,26.04252,48.18398,26.04252"/>
		<g>
			<path class="st0" d="M31.60966,24.76324c-0.26231-0.36234-0.54191-0.65731-0.54191-1.33051V21.1962
				c0-0.94822,0.06735-1.81866-0.63139-2.47127c-0.55068-0.52869-1.46382-0.71488-2.16256-0.71488
				c-1.36609,0-2.89054,0.50989-3.2108,2.19815c-0.03368,0.17957,0.09671,0.27375,0.21439,0.30031l1.39164,0.15086
				c0.13014-0.00674,0.22444-0.13485,0.24936-0.26422c0.11984-0.5817,0.60647-0.86219,1.1541-0.86219
				c0.29548,0,0.63113,0.10879,0.80588,0.37314c0.20156,0.29535,0.17487,0.69912,0.17487,1.04112v0.18644
				c-0.83307,0.09341-1.9211,0.15556-2.70003,0.49755c-0.8998,0.38852-1.53118,1.18105-1.53118,2.34672
				c0,1.49166,0.94034,2.2378,2.14897,2.2378c1.02104,0,1.57909-0.24096,2.36717-1.04378
				c0.26091,0.37745,0.34632,0.56046,0.82304,0.95686c0.10726,0.05757,0.24427,0.05185,0.3392-0.03343l0.00355,0.00317
				c0.28672-0.2552,0.80779-0.70764,1.10098-0.95356C31.72188,25.04931,31.70141,24.89426,31.60966,24.76324z M28.78419,24.11774
				c-0.22812,0.4039-0.59096,0.65273-0.99371,0.65273c-0.55068,0-0.87298-0.41978-0.87298-1.0415
				c0-1.22286,1.09691-1.44501,2.13575-1.44501v0.31073C29.05324,23.1544,29.06646,23.62018,28.78419,24.11774z"/>
		</g>
		<g>
			<path class="st0" d="M12.78737,24.76324c-0.26232-0.36234-0.54166-0.65731-0.54166-1.33051V21.1962
				c0-0.94822,0.06685-1.81866-0.63138-2.47127c-0.55068-0.52869-1.46408-0.71488-2.16257-0.71488
				c-1.3666,0-2.89104,0.50989-3.2108,2.19815c-0.03393,0.17957,0.09671,0.27375,0.2144,0.30031l1.39151,0.15086
				c0.13015-0.00674,0.2247-0.13485,0.24948-0.26422c0.11934-0.5817,0.60648-0.86219,1.1541-0.86219
				c0.29523,0,0.63113,0.10879,0.80588,0.37314c0.20144,0.29535,0.17437,0.69912,0.17437,1.04112v0.18644
				c-0.83244,0.09341-1.92071,0.15556-2.69952,0.49755C6.63113,22.01974,6,22.81227,6,23.97794
				c0,1.49166,0.94021,2.2378,2.14909,2.2378c1.02066,0,1.57884-0.24096,2.36718-1.04378
				c0.26041,0.37745,0.34581,0.56046,0.82304,0.95686c0.10688,0.05757,0.24427,0.05185,0.33907-0.03343l0.0033,0.00317
				c0.28659-0.2552,0.80791-0.70764,1.10123-0.95356C12.89985,25.04931,12.87887,24.89426,12.78737,24.76324z M9.96216,24.11774
				c-0.22813,0.4039-0.59097,0.65273-0.99398,0.65273c-0.55043,0-0.87298-0.41978-0.87298-1.0415
				c0-1.22286,1.09717-1.44501,2.13549-1.44501v0.31073C10.2307,23.1544,10.24417,23.62018,9.96216,24.11774z"/>
		</g>
	</g>
</g>
</svg>
