<?xml version="1.0" encoding="utf-8"?>
<!-- Generator: Adobe Illustrator 20.1.0, SVG Export Plug-In . SVG Version: 6.00 Build 0)  -->
<svg version="1.1" id="Livello_1" xmlns="http://www.w3.org/2000/svg" xmlns:xlink="http://www.w3.org/1999/xlink" x="0px" y="0px"
	 viewBox="0 0 204.5 204.5" style="enable-background:new 0 0 204.5 204.5;" xml:space="preserve">
<style type="text/css">
	.st0{fill:#008FCC;}
	.st1{fill:#FFFFFF;}
	.st2{fill:#00953A;}
	.st3{fill:#EB0029;}
	.st4{fill:url(#SVGID_1_);}
	.st5{fill-rule:evenodd;clip-rule:evenodd;fill:url(#SVGID_2_);}
</style>
<g>
	
		<image style="overflow:visible;opacity:0.5;" width="875" height="800" xlink:href="2CE25E8287C07155.png"  transform="matrix(0.24 0 0 0.24 -2.6561 -0.3229)">
	</image>
	<g>
		<g>
			<g>
				<g>
					<path class="st0" d="M49.4,37.5c-3.1,0-4.7-1.7-4.7-4.9c0-1.6,0.4-3.3,0.8-5c0.1-0.6,0.3-1.2,0.4-1.7c1.6-7.3,1.9-8.9,1.9-9.2
						c0-0.4-0.1-0.4-0.3-0.4c-1.9,0-9.4,11.9-10.7,18.5c0,0.3,0.1,0.6,0.2,0.9L37,36l-0.2,0.2c-0.6,0.5-2.4,1.1-3.7,1.1
						c-1.5,0-2.7-0.5-3.8-1.6l-0.2-0.2l0.1-0.2c0.5-2.1,1-4,1.4-5.9c1.5-6.4,2.7-11.4,2.7-12.7c0-0.5-0.1-0.5-0.4-0.5
						c-1.2,0-4.5,4.9-6,7.2c-1.4,2.1-2.4,4.4-4.2,9l-0.8,1.9c-0.8,1.9-1.8,3-4.5,3c-1,0-2.2-0.1-3.9-0.5L13,36.8l0.2-0.5
						c3.8-9.5,5.6-18.5,5.6-21.8c0-1.2-0.2-2.2-0.6-3.1L18,11l0.4-0.2c2.2-0.9,4-1.4,5.4-1.4c1.8,0,3.1,1.2,3.1,2.9
						c0,1.5-0.4,3.5-1,5.9c4-5.6,8.2-8.9,11.4-8.9c2.3,0,3.8,1.4,3.8,3.6c0,1.7-0.2,3.5-0.5,5.1c4.5-6.4,8.8-8.7,11.2-8.7
						c2.1,0,3.8,1.8,3.8,4c0,3.1-1,6.9-1.9,10.3c-0.6,2.5-1.3,4.8-1.3,6.2c0,0.5,0,1.4,0.1,1.7c0.7-0.1,2.4-1.8,3.3-2.7
						c1.3-1.3,1.6-1.6,2-1.6s0.7,0.2,0.7,0.9C58.6,31.9,53.2,37.5,49.4,37.5z"/>
					<path class="st1" d="M51.7,9.6c2,0,3.4,1.6,3.4,3.6c0,5.4-3.1,13.2-3.1,16.5c0,1,0,2.1,0.5,2.1c1.3,0,4.8-4.3,5.4-4.3
						c0.2,0,0.3,0.1,0.3,0.4c0,3.6-5.2,9-8.8,9c-2.7,0-4.3-1.4-4.3-4.5c0-2,0.7-4.4,1.2-6.6c1.2-5.5,1.9-8.7,1.9-9.2
						c0-0.6-0.2-0.8-0.7-0.8c-2.2,0-9.9,12.4-11.1,18.8c0,0.3,0,0.7,0.2,1.1c-0.5,0.4-2.2,1-3.5,1c-1.4,0-2.5-0.5-3.5-1.5
						c2.3-9.6,4.2-16.9,4.2-18.7c0-0.7-0.3-0.9-0.8-0.9c-1.3,0-3.9,3.7-6.4,7.4c-1.6,2.4-2.7,5.1-5.1,11c-0.7,1.8-1.5,2.7-4.1,2.7
						c-1,0-2.2-0.1-3.9-0.4c3.9-9.6,5.6-18.7,5.6-22c0-1.2-0.2-2.3-0.6-3.3c2.2-0.9,3.9-1.4,5.2-1.4c1.5,0,2.7,0.9,2.7,2.4
						c0,1.9-0.7,4.7-1.6,8.2c4.5-7.1,9.3-10.8,12.4-10.8c1.9,0,3.4,1,3.4,3.2c0,2.5-0.4,5.3-1.1,7.5C44,13.1,48.9,9.6,51.7,9.6
						 M51.7,8.8c-3,0-6.9,2.8-10.5,7.5c0.1-1.1,0.2-2.3,0.2-3.4c0-2.4-1.7-4.1-4.3-4.1c-3,0-6.8,2.8-10.5,7.5c0.4-1.6,0.6-2.9,0.6-4
						c0-1.9-1.5-3.3-3.5-3.3c-1.4,0-3.3,0.5-5.5,1.5l-0.8,0.3l0.3,0.8c0.3,0.8,0.5,1.8,0.5,2.9c0,3.2-1.8,12.4-5.5,21.7l-0.4,1
						l1,0.2c1.7,0.3,3,0.5,4,0.5c2.9,0,4-1.2,4.9-3.3l0.8-1.9c1.9-4.5,2.8-6.8,4.2-8.9c1.1-1.6,4.4-6.5,5.6-7c0,0,0,0,0,0
						c0,1.3-1.2,6.3-2.7,12.6c-0.4,1.8-0.9,3.8-1.4,5.9l-0.1,0.5L29,36c1.1,1.2,2.5,1.8,4.1,1.8c1.4,0,3.3-0.7,4-1.2l0.5-0.4
						l-0.2-0.6c-0.1-0.3-0.1-0.5-0.2-0.8c1.2-6.4,8.2-17.1,10.1-18c0,0.4-0.3,2.1-1.9,9c-0.1,0.6-0.2,1.1-0.4,1.7
						c-0.4,1.7-0.8,3.5-0.8,5.1c0,3.4,1.9,5.3,5.2,5.3c4,0,9.7-5.8,9.7-9.9c0-0.9-0.6-1.3-1.2-1.3c-0.5,0-0.9,0.4-2.3,1.7
						c-0.7,0.7-2,1.9-2.7,2.4c0-0.3,0-0.8,0-1.1c0-1.3,0.6-3.7,1.2-6.1C55,20.2,56,16.4,56,13.2C56,10.7,54.1,8.8,51.7,8.8L51.7,8.8
						z"/>
				</g>
				<g>
					<path class="st0" d="M53.2,47.6c-2.4,0-3.9-1-4.2-2.7c-0.1-0.2-0.1-0.4-0.1-0.6c0-1.3,0.7-2.8,0.9-3.4l0.2-0.5l0.4,0.4
						c0.3,0.3,1.5,0.7,2.2,0.7c2.6,0,5.5-2,8-5.6c0.2-0.3,0.4-1,0.4-2c0-0.8-0.1-1.7-0.2-2.4c-1.9-15.6-4-18.7-4.7-19.3l-0.5-0.4
						l0.5-0.3c2.1-1.3,4-1.9,5.8-1.9c1.5,0,3.4,0.8,3.9,4.4c0.7,4.4,1.3,10,1.6,14.9c4.8-6.9,7.6-12.8,7.6-15.9c0-0.8-0.5-2.3-1-2.9
						l-0.5-0.6l0.8-0.1c0.6-0.1,1.5-0.2,1.9-0.2c3.8,0,5.6,1.2,5.6,3.8c0,3.2-5,11.8-13.1,22.4C62.3,43.9,57.6,47.6,53.2,47.6z"/>
					<path class="st1" d="M76.2,9.5c3.6,0,5.2,1.1,5.2,3.4c0,3.1-5.1,11.8-13,22.1c-7.3,9.6-11.6,12.2-15.3,12.2
						c-2.1,0-3.5-0.8-3.8-2.4c0-0.1,0-0.3,0-0.5c0-0.9,0.4-2.2,0.9-3.2c0.4,0.4,1.7,0.8,2.5,0.8c3.1,0,6.1-2.5,8.4-5.8
						c0.3-0.5,0.4-1.3,0.4-2.3c0-0.8-0.1-1.7-0.2-2.5c-1.4-11.2-3.1-18.2-4.9-19.6c2-1.2,3.9-1.8,5.6-1.8c1.8,0,3.1,1.3,3.5,4.1
						c0.7,5,1.4,11.2,1.7,16.1c4.9-6.9,8.4-13.6,8.4-17.2c0-0.9-0.5-2.5-1.1-3.2C75,9.5,75.9,9.5,76.2,9.5 M76.2,8.6
						c-0.4,0-1.3,0-2,0.2l-1.6,0.3l1.1,1.2c0.4,0.5,0.9,1.8,0.9,2.6c0,2.8-2.6,8.3-6.8,14.7c-0.4-4.6-1-9.6-1.5-13.7
						C65.7,9.6,63.4,9,62,9c-1.8,0-3.9,0.7-6,2l-1.1,0.6l1,0.8c0.6,0.4,2.6,3.1,4.6,19c0.1,0.7,0.2,1.6,0.2,2.4
						c0,1.2-0.2,1.6-0.3,1.8c-2.4,3.4-5.2,5.4-7.7,5.4c-0.6,0-1.7-0.4-1.9-0.6l-0.9-0.8l-0.5,1c-0.3,0.6-1,2.2-1,3.6
						c0,0.2,0,0.5,0.1,0.8c0.2,1.2,1.1,3,4.6,3c4.6,0,9.4-3.7,16-12.5c8.3-10.8,13.2-19.3,13.2-22.6C82.3,8.6,77.7,8.6,76.2,8.6
						L76.2,8.6z"/>
				</g>
				<g>
					<path class="st0" d="M98.1,37.6c-6.2,0-9.3-3-9.3-8.8c0-10.4,8.1-19.6,17.3-19.6c1.6,0,6.7,0,6.7,3.5c0,1.9-1.8,3.6-5,4.6
						l-0.4,0.1l-0.1-0.5c-0.7-3-1.6-3.5-3.1-3.5c-4.1,0-6.8,5.6-6.8,13.9c0,1.6,0.3,5.2,3.3,5.2c2.8,0,5.6-1.2,7.9-3.3
						c0.6-9.1,7.8-20.1,16-20.1c2,0,3.6,0.4,4.8,1.3c0.8-0.8,1.9-1.2,3.2-1.2c1.5,0,3,0.4,4.6,1.2l0.4,0.2l-0.3,0.4
						c-1.8,2.6-4.8,14.9-4.8,18.5c0,1.1,0.1,1.5,0.2,1.6c0.6-0.1,1.2-0.7,2.1-1.6c1.6-1.8,2.4-2.3,2.9-2.5
						c1.7-6.8,2.5-11.7,2.5-14.5c0-0.6-0.1-1.2-0.4-1.8l-0.2-0.4l0.4-0.1c1.7-0.6,3.3-0.9,4.6-0.9c2.8,0,3.4,1.6,3.4,2.9
						c0,0.8-0.3,2.5-0.8,5.1c3.3-5.5,6.1-8.2,8.6-8.2c1.6,0,2.5,0.8,2.5,2.4c0,2.6-1.2,5.3-3.7,8.1l-0.4,0.4l-0.3-0.5
						c-0.7-1-1.1-1.1-1.3-1.1c-1,0-2.8,1.1-5.5,6.4c-2.2,4.4-3.3,7.6-3.3,9.6c0,0.4,0.1,1,0.3,1.6l0.1,0.4l-0.4,0.1
						c-1.3,0.4-2.6,0.6-4,0.6c-3.1,0-3.7-1.5-3.7-2.8c0-0.3,0-0.7,0.1-1.2c-1.9,2.2-4.5,4.1-6.8,4.1c-3.1,0-4.8-2-4.8-5.7
						c0-0.6,0-1.5,0.1-2.3c-3.4,5.2-6.8,7.8-10,8l-0.6,0c-2.7,0-4.5-1.3-5.3-3.8C106.3,36.3,101.1,37.6,98.1,37.6z M124,13.9
						c-3.6,0-7.5,9.1-7.5,15.5c0.1,2.1,0.9,2.1,1.2,2.1c0.8,0,2.1-1.5,4.1-4.4c2.7-3.9,4.7-8.3,5.7-10.9
						C127,14.6,125.4,13.9,124,13.9z"/>
					<path class="st1" d="M106.1,9.7c4.3,0,6.2,1,6.2,3.1c0,1.9-2,3.4-4.6,4.2c-0.6-2.9-1.5-3.9-3.5-3.9c-4.2,0-7.3,5.4-7.3,14.3
						c0,3,1.1,5.6,3.8,5.6c3.1,0,6.1-1.4,8.3-3.5c0.5-9.4,7.8-19.8,15.6-19.8c1.9,0,3.6,0.4,4.8,1.4c0.8-0.8,1.9-1.3,3.1-1.3
						c1.5,0,3,0.4,4.4,1.2c-1.8,2.7-4.8,14.9-4.8,18.7c0,1,0,2.1,0.5,2.1c0,0,0,0,0,0c0.8-0.1,1.5-0.8,2.4-1.7
						c1.5-1.6,2.4-2.4,3-2.5c1.7-7,2.6-12,2.6-14.8c0-0.6-0.1-1.3-0.4-2c1.7-0.6,3.2-0.9,4.4-0.9c2,0,3,0.8,3,2.5
						c0,1.1-0.5,3.7-1.5,7.8c3.8-7,7.1-10.5,9.7-10.5c1.4,0,2.1,0.7,2.1,2c0,2.5-1.2,5.1-3.5,7.8c-0.6-0.9-1.2-1.3-1.7-1.3
						c-1.7,0-3.6,2.2-5.9,6.6c-2.2,4.4-3.4,7.7-3.4,9.8c0,0.5,0.1,1.1,0.3,1.8c-1.2,0.4-2.5,0.5-3.8,0.5c-2.2,0-3.3-0.8-3.3-2.4
						c0-0.5,0.2-1.6,0.5-3c-1.8,2.8-5.1,5.5-7.5,5.5c-2.7,0-4.4-1.7-4.4-5.2c0-1.2,0.1-3,0.2-4c-3.7,6-7.3,9.2-10.6,9.3h-0.5
						c-3,0-4.5-1.7-5.1-4.2c-2.3,2.7-7.8,4.3-11.1,4.3c-5.9,0-8.9-2.8-8.9-8.4C89.2,19,96.9,9.7,106.1,9.7 M117.8,31.9
						c1,0,2.5-1.7,4.5-4.6c2.5-3.7,4.7-8.1,5.8-11.1c-0.5-2-2.4-2.9-4-2.9c-4,0-7.9,9.5-7.9,15.9C116.2,31.1,116.7,31.9,117.8,31.9
						 M106.1,8.8c-9.4,0-17.7,9.3-17.7,20c0,6,3.4,9.2,9.8,9.2c2.8,0,7.7-1.1,10.7-3.5c0.9,2.3,2.8,3.5,5.5,3.5h0.5
						c3.1-0.1,6.3-2.5,9.5-6.9c0,0.3,0,0.6,0,0.8c0,3.9,1.9,6.1,5.3,6.1c2.1,0,4.4-1.5,6.2-3.3c0,1.2,0.6,3.2,4.2,3.2
						c1.4,0,2.8-0.2,4.1-0.6l0.8-0.3l-0.3-0.8c-0.2-0.6-0.3-1.1-0.3-1.5c0-1.9,1.1-5.1,3.3-9.4c2.7-5.4,4.4-6.2,5.1-6.2
						c0,0,0.3,0,1,0.9l0.6,0.9l0.7-0.8c2.5-2.9,3.8-5.7,3.8-8.4c0-1.8-1.1-2.8-2.9-2.8c-2.3,0-4.8,2.1-7.7,6.4
						c0.3-1.3,0.4-2.3,0.4-2.8c0-1.2-0.5-3.3-3.8-3.3c-1.3,0-2.9,0.3-4.7,1l-0.8,0.3l0.3,0.8c0.2,0.6,0.3,1.1,0.3,1.6
						c0,2.7-0.8,7.4-2.5,14.1c-0.6,0.3-1.4,0.9-2.9,2.5c-0.5,0.5-1,1-1.4,1.3c0-0.2,0-0.6,0-1c0-3.6,2.9-15.7,4.7-18.3l0.5-0.8
						l-0.9-0.4c-1.7-0.9-3.2-1.3-4.8-1.3c-1.2,0-2.3,0.4-3.2,1.1c-1.3-0.8-2.8-1.2-4.8-1.2c-8.4,0-15.8,11-16.4,20.3
						c-2.1,1.9-4.9,3-7.5,3c-2.6,0-2.9-3.3-2.9-4.7c0-7.9,2.6-13.5,6.4-13.5c1.2,0,2,0.2,2.7,3.2l0.2,0.9l0.9-0.3
						c3.3-1.1,5.3-2.9,5.3-5C113.2,10.2,110.8,8.8,106.1,8.8L106.1,8.8z M117.8,31.1c-0.2,0-0.7,0-0.8-1.8c0-6.4,4-15,7.1-15
						c1.2,0,2.6,0.6,3,2c-1,2.6-3,6.8-5.6,10.6C118.9,30.8,118,31.1,117.8,31.1L117.8,31.1z"/>
				</g>
				<g>
					<path class="st0" d="M157.9,37.6c-3.3,0-5.4-2.8-5.4-7c0-9.5,7.4-21,16.1-21c1.6,0,2.9,0.3,4.5,1.1c0.6-2.7,1-5.1,1-7
						c0-0.9-0.1-1.5-0.4-1.9l-0.2-0.4l0.4-0.2c1.7-1,3.7-1.5,5.3-1.5c2.1,0,3.2,1.1,3.2,3.2c0,1.6-0.3,3.1-0.7,4.5
						c-0.8,3.3-1.6,6.4-2.3,9.1c-1.5,5.8-2.6,10.3-2.6,13.2c0,0.7,0.1,1.2,0.3,1.5c0.4-0.2,1.1-0.7,1.9-1.5c2.1-2.3,2.8-2.6,3.3-2.6
						c0.4,0,0.7,0.2,0.7,0.9c0,3.9-5.4,9.4-9.2,9.4c-2.2,0-4.9-1-4.9-5.8c0-0.6,0-1.3,0.1-2C165.4,34.7,161.5,37.6,157.9,37.6z
						 M168.1,14.2c-3.5,0-7.6,8.1-7.6,15.1c0.1,2.1,0.8,2.1,1.2,2.1c0.9,0,2.8-1.7,5.6-6.3c1.6-2.5,3-5.3,4.3-8.2
						C171.3,15.4,169.8,14.2,168.1,14.2z"/>
					<path class="st1" d="M179,0c1.9,0,2.8,1,2.8,2.8c0,1.5-0.3,3-0.6,4.5c-2.5,10.6-4.9,18.2-4.9,22.4c0,1,0.3,1.6,0.5,2.1
						c0.5-0.1,1.4-0.8,2.4-1.7c1.5-1.7,2.5-2.5,3-2.5c0.2,0,0.3,0.1,0.3,0.4c0,3.7-5.2,9-8.8,9c-2.9,0-4.4-1.7-4.4-5.4
						c0-1.2,0.1-2.8,0.3-3.8c-4.1,6.7-8.2,9.5-11.6,9.5c-3.1,0-5-2.6-5-6.6c0-9.2,7.2-20.6,15.6-20.6c1.9,0,3.3,0.5,4.7,1.3
						c0.7-2.9,1.1-5.6,1.1-7.6c0-0.8-0.1-1.5-0.5-2.2C175.7,0.5,177.6,0,179,0 M161.7,31.9c1.3,0,3.5-2.4,6-6.5
						c1.7-2.7,3.2-5.6,4.4-8.4c-0.3-1.9-2.1-3.3-4-3.3c-4,0-8,8.5-8,15.6C160.2,31.1,160.7,31.9,161.7,31.9 M179-0.9
						c-1.7,0-3.7,0.6-5.5,1.6l-0.8,0.4l0.5,0.8c0.3,0.4,0.4,0.9,0.4,1.7c0,1.7-0.3,3.9-0.9,6.4c-1.1-0.5-2.4-0.9-4.2-0.9
						c-8.9,0-16.5,11.8-16.5,21.4c0,4.5,2.3,7.4,5.9,7.4c3.4,0,7.1-2.5,10.5-7.1c0,0.2,0,0.4,0,0.5c0,5.2,2.9,6.3,5.3,6.3
						c4,0,9.6-5.7,9.6-9.8c0-0.9-0.6-1.3-1.2-1.3c-0.6,0-1.4,0.3-3.6,2.7c-0.6,0.6-1,0.9-1.4,1.1c-0.1-0.3-0.1-0.5-0.1-0.9
						c0-2.8,1.2-7.3,2.6-13c0.7-2.7,1.5-5.8,2.3-9.1c0.3-1.4,0.7-3,0.7-4.6C182.6,0.5,181.3-0.9,179-0.9L179-0.9z M161.7,31.1
						c-0.2,0-0.6,0-0.7-1.8c0-7.3,4.2-14.7,7.2-14.7c1.4,0,2.7,1,3.1,2.3c-1.3,2.8-2.7,5.5-4.2,8C164,29.8,162.3,31.1,161.7,31.1
						L161.7,31.1z"/>
				</g>
			</g>
			<g>
				<g>
					<g>
						<path class="st2" d="M129.5,171.3c0.5,0.2,1.4,0.1,1.8,0.4c-1,0.3-2.1-0.1-2.7-0.3c0.5-0.1,0.5,0.1,0.8-0.1
							c-2.3-0.5-5.2-0.5-7.6-0.9c7-0.3,13.9,1.6,21.1,0.8c-0.8-0.8-3.1-0.4-4.2-0.9c3.6-0.7,7.6,0.1,11.6,0.3
							c8.4,0.5,16,2.1,23.6,2.9c-2.7-1.3-6.2-1.1-9.2-1.9c-0.5-0.1-0.9-0.4-1.4-0.6c-2-0.6-4.4-0.5-6.6-1c-0.6-0.1-1.1-0.5-1.7-0.6
							c-1.9-0.4-4.2-0.4-6.3-0.7c-5.8-0.8-12.3-1.5-18.4-2.1c-0.7,0-0.1-0.4-0.5-0.6c-1.2,0-2.3-0.1-3.1-0.4c1-0.4,2.1,0.1,3.4-0.1
							c-2.7-1.1-7.3-0.6-10.5-1.3c6.6-0.1,13,1,19.5,1c2.9,0,5.3,0.6,8.3,0.5c1.8-0.1,4,0.5,5.8,0.7c2.6,0.4,4.6,0.6,7.5,0.8
							c2.4,0.2,4.6,0.9,7.1,1.3c1.7,0.2,3.3,0.4,4.9,0.7c4.5,0.8,9.7,1.8,14.4,2.3c-3.1-1.1-6.3-1.4-9.7-2.2c0-0.1,0.2-0.1,0.3-0.1
							c0.7-0.3-0.5,0-0.6,0c-1.7,0-3.6-0.8-5.6-0.9c0.3-0.4,1.2,0.1,1.9,0c-9.8-2.3-20.3-2.9-30.6-4.8c-3.8-0.7-8-1-11.7-1.7
							c-3.6-0.6-7.7-0.7-11.6-1c-9.8-0.7-20.1-1-30.7-1.1c-2.1,0-4.3,0.1-6.4,0c-3.7-0.2-7.5-0.1-11.5,0
							c-18.1,0.6-36.7,1.9-52.6,5.2c-0.2,0.7-0.9,1.1-0.6,2c1.2,0,1.9,0.3,2.6,0.7c0,0.6-1.2,0.5-1.4,1c0.9,0.2,1.8,0.3,2.8,0.3
							c0.5,0.6-0.4,0.6-0.2,1.3c0.3,0.2,1.2,0,1.5,0.3c0.4,0.2,0,0.5-0.1,0.7c6.7,0.8,13.8,0.2,20.9,0c22.7-0.7,46-1.2,66.6-0.2
							c4.4,0.5,10.5,0.4,15.2,0.8c2.3,0.2,4.5,0.5,7,0.3c0.4-0.6,1.5-0.2,2.8-0.3C133.5,171.6,131.6,171.4,129.5,171.3L129.5,171.3z
							"/>
						<path class="st1" d="M129.6,179.2c0.5,0.2,1.4,0.1,1.8,0.4c-1,0.4-2.1-0.1-2.7-0.3c0.5-0.1,0.5,0.2,0.7,0
							c-2.3-0.5-5.2-0.5-7.6-0.9c7-0.3,13.9,1.6,21.1,0.8c-0.8-0.8-3.1-0.4-4.2-0.9c3.6-0.7,7.6,0.1,11.6,0.3
							c8.4,0.4,16,2.1,23.6,2.9c-2.7-1.3-6.2-1-9.2-1.9c-0.5-0.2-0.9-0.5-1.4-0.6c-2-0.6-4.4-0.5-6.6-1c-0.6-0.1-1.1-0.5-1.7-0.6
							c-1.9-0.4-4.1-0.4-6.3-0.7c-5.8-0.7-12.3-1.5-18.4-2.2c-0.7,0-0.1-0.4-0.5-0.6c-1.2,0-2.3-0.1-3.1-0.4c1-0.4,2.1,0.1,3.4-0.1
							c-2.6-1.1-7.3-0.6-10.5-1.4c6.6-0.1,13,1,19.5,1c2.9,0,5.3,0.6,8.3,0.5c1.8-0.1,4,0.5,5.8,0.7c2.6,0.4,4.6,0.6,7.5,0.8
							c2.5,0.2,4.7,0.9,7.1,1.3c1.7,0.3,3.3,0.4,4.9,0.7c4.5,0.8,9.7,1.8,14.4,2.3c-3.1-1.1-6.3-1.4-9.7-2.2c0-0.1,0.2-0.1,0.3-0.1
							c0.7-0.3-0.5,0-0.6,0c-1.7,0-3.7-0.8-5.5-0.8c0.3-0.4,1.2,0.1,1.9,0c-9.7-2.3-20.3-2.9-30.6-4.8c-3.8-0.7-8-1-11.7-1.7
							c-3.6-0.6-7.7-0.7-11.6-1c-9.8-0.7-20.1-1-30.7-1.1c-2.1,0-4.3,0.1-6.4,0c-3.7-0.2-7.5-0.1-11.6,0
							c-18.1,0.6-36.7,1.9-52.6,5.3c-0.2,0.7-0.8,1.1-0.6,2c1.2,0,1.9,0.3,2.6,0.7c0,0.6-1.2,0.5-1.4,1c0.9,0.2,1.8,0.2,2.8,0.3
							c0.5,0.6-0.4,0.6-0.2,1.3c0.3,0.2,1.2,0,1.5,0.3c0.4,0.2,0,0.5-0.1,0.7c6.7,0.9,13.8,0.2,20.9,0c22.7-0.7,45.9-1.2,66.6-0.2
							c4.4,0.5,10.5,0.4,15.2,0.7c2.3,0.2,4.5,0.5,7,0.3c0.4-0.6,1.5-0.2,2.8-0.3C133.7,179.5,131.7,179.2,129.6,179.2L129.6,179.2z
							"/>
						<path class="st3" d="M129.5,187c0.5,0.2,1.4,0.1,1.8,0.4c-1,0.3-2.1-0.1-2.7-0.3c0.5-0.1,0.5,0.1,0.7-0.1
							c-2.3-0.5-5.2-0.5-7.6-0.9c7-0.3,13.9,1.6,21.1,0.8c-0.8-0.7-3.1-0.4-4.2-0.9c3.6-0.7,7.6,0.1,11.6,0.3
							c8.4,0.5,16,2.1,23.6,2.9c-2.7-1.3-6.2-1.1-9.2-1.9c-0.5-0.1-0.9-0.4-1.4-0.6c-2-0.6-4.4-0.5-6.6-1c-0.6-0.1-1.1-0.5-1.7-0.6
							c-1.9-0.4-4.2-0.4-6.3-0.7c-5.8-0.8-12.3-1.5-18.4-2.1c-0.7,0-0.1-0.4-0.5-0.6c-1.2,0-2.3-0.1-3.1-0.4c1-0.4,2.1,0.1,3.4-0.1
							c-2.7-1.1-7.3-0.6-10.5-1.3c6.6-0.1,13,1,19.5,1c2.9,0,5.3,0.6,8.3,0.5c1.8-0.1,4,0.5,5.8,0.7c2.6,0.4,4.6,0.6,7.5,0.8
							c2.4,0.2,4.6,0.9,7,1.3c1.7,0.2,3.3,0.4,4.9,0.7c4.5,0.8,9.7,1.8,14.4,2.3c-3.1-1.1-6.3-1.4-9.7-2.2c0-0.1,0.2-0.1,0.3-0.1
							c0.7-0.3-0.5,0-0.6,0c-1.7,0-3.7-0.8-5.5-0.9c0.3-0.4,1.2,0.1,1.9,0c-9.8-2.3-20.3-2.8-30.6-4.8c-3.8-0.7-8-1.1-11.7-1.7
							c-3.6-0.6-7.7-0.7-11.6-1c-9.8-0.7-20.1-1-30.7-1.1c-2.1,0-4.3,0.1-6.4,0c-3.7-0.2-7.5-0.1-11.5,0
							c-18.1,0.6-36.7,1.9-52.6,5.2c-0.2,0.7-0.8,1.1-0.6,2c1.2,0,1.9,0.3,2.6,0.8c0,0.6-1.2,0.5-1.4,1c0.9,0.2,1.8,0.3,2.8,0.3
							c0.5,0.6-0.4,0.6-0.2,1.3c0.3,0.2,1.2,0,1.5,0.3c0.4,0.2,0,0.5-0.1,0.7c6.7,0.8,13.8,0.2,20.9,0c22.7-0.7,45.9-1.2,66.6-0.2
							c4.3,0.5,10.5,0.4,15.2,0.8c2.3,0.2,4.5,0.5,7,0.2c0.4-0.6,1.5-0.2,2.8-0.2C133.6,187.3,131.7,187.1,129.5,187L129.5,187z"/>
					</g>
				</g>
			</g>
			<g>
				<linearGradient id="SVGID_1_" gradientUnits="userSpaceOnUse" x1="53.1484" y1="146.791" x2="53.1484" y2="42.9658">
					<stop  offset="0" style="stop-color:#BD0C26"/>
					<stop  offset="0.1794" style="stop-color:#CB0523"/>
					<stop  offset="0.4146" style="stop-color:#D8001F"/>
					<stop  offset="0.6514" style="stop-color:#E0001B"/>
					<stop  offset="0.8906" style="stop-color:#E2001A"/>
				</linearGradient>
				<path class="st4" d="M84.7,146.8c-6.9,0-12.1-0.6-15.5-1.8c-4.1-1.4-6.1-4-6.1-7.5c0-1.3,0.3-2.4,0.9-3.3
					c0.5-0.8,1.8-2.2,3.9-4.3c0.6-0.6,1.4-2,1.9-5.4c0.4-2.9,0.6-7.7,0.6-14.7c0-4.7-0.3-6.6-0.5-7.4c-0.3-1.2-0.8-1.2-1-1.2
					c-1,0-1.9,1.3-2.5,2.4c-1,1.8-2.6,5.5-4.7,11l-7.3,19.5c-1.3,3.4-2.3,5.6-3.1,6.9c-1,1.4-2,2.1-3.3,2.1c-1.2,0-2.2-0.6-3.1-1.7
					c-0.3-0.4-1-1.5-3.2-6.6c-1.6-3.7-2.9-7-3.9-9.8l-8-21.5c-1.3-3.7-2.4-3.9-2.6-3.9c-1,0-1.2,1.9-1.3,3
					c-0.3,5.6-0.4,10.9-0.4,15.8c0,5,0.2,8.3,0.6,10c0.2,0.9,0.5,1.6,0.9,1.9c0.2,0.2,1,0.9,3.6,2.5c1.6,1,2.4,2.7,2.4,5
					c0,6-6.1,9-18.2,9c-10.3,0-15.5-3-15.5-8.8c0-1.6,0.3-2.7,0.9-3.5c0.6-0.7,1.9-1.7,4.2-2.9c1.2-0.6,1.9-1.5,2.3-2.5
					c0.5-1.2,0.9-3.6,1.2-7.1c0.4-3.8,0.7-10,1-19C9,94.2,9.2,86.6,9.2,80.3c0-7.8-0.5-13.1-1.5-15.7C7.4,63.7,7,63,6.6,62.6
					c-0.4-0.4-1.2-1-2.4-1.8c-3.1-1.8-4.7-4.2-4.7-7.1c0-1.9,0.6-3.6,1.7-5.2C2.4,47.1,4,46,6,45.3c1.8-0.6,4.2-1.2,7.2-1.6
					c3-0.5,5.6-0.7,7.7-0.7c5.3,0,9.1,0.5,11.3,1.6c1.2,0.5,2.1,1.3,2.8,2.2c0.6,0.9,1.5,2.5,2.7,5.2l12.6,27.8
					c1.7,3.7,2.4,5,2.7,5.4c0.4,0.5,0.8,0.7,1.5,0.7c0.5,0,1-0.2,1.5-0.8c0.6-0.7,1.3-2,2.1-3.9l8.5-20c1-2.5,1.7-4.2,2.1-5
					c2-5,4-8.3,6.1-10c2.6-2.2,7.2-3.3,14-3.3c11.9,0,18,3.4,18,10.2c0,1.5-0.3,2.8-0.8,3.8c-0.5,0.9-1.5,2-2.9,3.3
					c-1.7,1.5-2.8,3.8-3.2,6.8c-0.9,6.6-1.4,14.7-1.4,24.3c0,12.2,0.5,23.1,1.4,32.3c0.3,2.7,0.7,3.8,1,4.3c0.3,0.5,1.2,1.5,3.7,3.5
					c1.7,1.3,2.5,3.1,2.5,5.3c0,3.8-2.1,6.5-6.2,8c-2,0.8-4.1,1.3-6.3,1.6C92.4,146.7,89.1,146.8,84.7,146.8z"/>
				<path class="st1" d="M20.9,43.8c5.2,0,8.8,0.5,11,1.5c1,0.5,1.9,1.1,2.5,2c0.6,0.8,1.5,2.5,2.6,5.1l12.6,27.8
					c1.4,3.1,2.3,4.9,2.8,5.6c0.5,0.7,1.3,1,2.2,1c0.8,0,1.5-0.4,2.1-1.1c0.6-0.7,1.4-2.1,2.2-4.1l8.5-20c1-2.6,1.7-4.2,2.1-5
					c2-4.8,3.9-8,5.9-9.6c2.5-2.1,6.9-3.1,13.4-3.1c11.4,0,17.1,3.1,17.1,9.4c0,1.4-0.2,2.5-0.7,3.4c-0.4,0.8-1.4,1.8-2.7,3
					c-1.9,1.7-3,4.1-3.5,7.3c-0.9,6.7-1.4,14.8-1.4,24.4c0,12.3,0.5,23.1,1.4,32.4c0.2,2.3,0.6,3.8,1.1,4.6c0.5,0.8,1.8,2.1,3.9,3.7
					c1.4,1.2,2.2,2.7,2.2,4.6c0,3.4-1.9,5.8-5.6,7.2c-1.9,0.8-4,1.3-6.1,1.5c-2.1,0.2-5.4,0.4-9.9,0.4c-6.8,0-11.9-0.6-15.3-1.7
					c-3.7-1.3-5.6-3.5-5.6-6.7c0-1.2,0.2-2.1,0.7-2.8c0.5-0.8,1.7-2.2,3.8-4.1c1-1,1.8-3,2.1-5.9c0.4-2.9,0.6-7.8,0.6-14.8
					c0-3.9-0.2-6.4-0.5-7.6c-0.3-1.2-0.9-1.8-1.9-1.8c-1.1,0-2.2,0.9-3.3,2.8c-1.1,1.8-2.6,5.5-4.7,11.1l-7.3,19.5
					c-1.3,3.3-2.3,5.5-3,6.7c-0.8,1.1-1.6,1.7-2.5,1.7c-0.9,0-1.7-0.5-2.4-1.4c-0.4-0.6-1.5-2.7-3.1-6.4c-1.6-3.7-2.9-6.9-3.9-9.8
					l-8-21.5c-1.1-3-2.2-4.5-3.5-4.5c-1.3,0-2,1.3-2.1,3.8c-0.3,5.7-0.4,11-0.4,15.8c0,5,0.2,8.4,0.6,10.2c0.3,1.1,0.6,1.8,1.1,2.3
					c0.5,0.5,1.8,1.4,3.8,2.6c1.3,0.8,2,2.3,2,4.3c0,5.4-5.8,8.1-17.4,8.1c-9.8,0-14.6-2.6-14.6-7.9c0-1.4,0.2-2.3,0.7-2.9
					c0.5-0.6,1.8-1.5,3.9-2.8c1.3-0.7,2.2-1.7,2.7-3c0.5-1.3,0.9-3.7,1.2-7.3c0.4-3.9,0.7-10.2,1-19C9.9,94.1,10,86.5,10,80.3
					c0-7.9-0.5-13.2-1.5-16c-0.4-1-0.8-1.7-1.3-2.2c-0.4-0.5-1.3-1.1-2.6-1.9c-2.9-1.6-4.3-3.8-4.3-6.4c0-1.7,0.5-3.2,1.6-4.6
					c1.1-1.4,2.5-2.4,4.3-3c1.8-0.6,4.1-1.2,7.1-1.6C16.3,44.1,18.8,43.8,20.9,43.8 M20.9,42.1c-2.2,0-4.7,0.2-7.8,0.8
					c-3,0.4-5.5,1-7.4,1.7c-2.1,0.7-3.8,1.9-5.1,3.5c-1.3,1.7-1.9,3.6-1.9,5.7c0,2.2,0.9,5.4,5.2,7.9c1.5,0.9,2,1.4,2.2,1.6l0,0l0,0
					c0.2,0.2,0.5,0.7,0.9,1.6c0.9,2.6,1.4,7.8,1.4,15.4c0,6.3-0.2,13.9-0.5,22.6c-0.3,8.9-0.7,15.1-1,18.9c-0.4,4.3-0.8,6.1-1.1,6.9
					l0,0l0,0c-0.3,0.8-0.9,1.5-1.9,2c-3.1,1.8-4,2.7-4.4,3.2c-0.8,0.9-1.1,2.2-1.1,4c0,4.4,2.8,9.6,16.4,9.6
					c12.7,0,19.1-3.3,19.1-9.9c0-3.3-1.5-5-2.8-5.8c-2.5-1.5-3.3-2.1-3.5-2.3c-0.1-0.1-0.4-0.6-0.7-1.5c-0.4-1.7-0.6-5-0.6-9.8
					c0-4.9,0.1-10.2,0.4-15.7c0.1-1.4,0.3-2,0.4-2.2c0.2,0.2,0.9,0.9,1.8,3.3l8,21.6c1,2.8,2.4,6.1,4,9.9c2.2,5.1,2.9,6.3,3.3,6.7
					c1.3,1.7,2.7,2.1,3.7,2.1c1,0,2.6-0.4,4-2.4c0.9-1.3,1.9-3.6,3.2-7l7.3-19.5c2.1-5.5,3.6-9.1,4.6-10.8c0.9-1.6,1.5-2,1.8-2
					c0,0,0,0,0,0c0,0.1,0.1,0.2,0.2,0.5l0,0l0,0c0.2,0.6,0.4,2.3,0.4,7.2c0,6.9-0.2,11.8-0.6,14.6c-0.4,3.3-1.2,4.5-1.6,4.9
					c-2.9,2.8-3.7,3.9-4,4.5c-0.6,1-1,2.2-1,3.7c0,2.7,1.2,6.3,6.7,8.3c3.6,1.2,8.7,1.8,15.8,1.8c4.4,0,7.8-0.1,10.1-0.4
					c2.3-0.3,4.5-0.8,6.6-1.6c5.5-2.1,6.7-5.9,6.7-8.8c0-2.4-1-4.5-2.8-6c-2.5-2-3.3-2.9-3.5-3.3c-0.2-0.3-0.6-1.3-0.9-3.9
					c-1-9.2-1.4-20-1.4-32.2c0-9.5,0.5-17.6,1.4-24.1c0.4-2.8,1.4-4.9,3-6.3c1.5-1.3,2.5-2.5,3.1-3.5c0.6-1.1,0.9-2.5,0.9-4.2
					c0-7.4-6.4-11.1-18.9-11.1c-7,0-11.7,1.2-14.5,3.5c-2.2,1.8-4.3,5.2-6.4,10.3c-0.3,0.8-1,2.4-2.1,5L57.3,81
					c-1,2.3-1.6,3.2-1.9,3.6l0,0l0,0c-0.4,0.5-0.7,0.5-0.8,0.5c-0.5,0-0.7-0.1-0.8-0.4c-0.2-0.3-0.9-1.3-2.6-5.2L38.5,51.7
					c-1.2-2.7-2.1-4.5-2.8-5.4c-0.8-1-1.8-1.9-3.1-2.5C30.2,42.7,26.4,42.1,20.9,42.1L20.9,42.1z"/>
			</g>
			<g>
				<linearGradient id="SVGID_2_" gradientUnits="userSpaceOnUse" x1="157.017" y1="146.0615" x2="157.017" y2="42.8232">
					<stop  offset="0" style="stop-color:#BD0C26"/>
					<stop  offset="0.1794" style="stop-color:#CB0523"/>
					<stop  offset="0.4146" style="stop-color:#D8001F"/>
					<stop  offset="0.6514" style="stop-color:#E0001B"/>
					<stop  offset="0.8906" style="stop-color:#E2001A"/>
				</linearGradient>
				<path class="st5" d="M154.9,145.8l-6.3-0.2c-4.8-0.2-9.1-0.3-12.9-0.3h-4.4c-2.5,0-5.2,0.1-8.5,0.4c-2,0.2-3.4,0.3-4.2,0.3
					c-2.9,0-5.3-0.8-7.2-2.5c-1.9-1.7-2.8-3.9-2.8-6.5c0-1.9,0.4-3.4,1.3-4.4c0.9-1.1,2.2-2,4.1-2.6c1.4-0.4,2.3-1.1,2.8-1.9
					c0.3-0.7,0.8-2.3,1.2-6.1c0.3-3.6,0.6-10.7,0.8-21.1c0.3-10.6,0.4-21.1,0.4-31.3c0-4.9-0.4-7-0.7-7.8c-0.4-1.1-1.5-2.1-3.2-2.8
					c-3.1-1.4-4.7-3.8-4.7-7.2c0-2.7,1.1-4.8,3.2-6.2c2.1-1.4,5-2.2,8.5-2.2c1.1,0,2.5,0,4,0.1c3.6,0.2,5.9,0.2,7.4,0.2
					c5.7,0,12.3-0.2,19.5-0.7c1.5-0.1,3.5-0.1,5.8-0.1c9.3,0,16.8,1.3,22.3,3.9c8.1,3.9,14.4,10.4,18.5,19.4
					c3.6,7.9,5.5,17.4,5.5,28.4c0,5.5-0.7,11.1-2,16.7c-1.3,5.5-3.2,10.4-5.5,14.4c-4.8,8.3-11.4,14.2-19.8,17.5
					c-4.9,2-10.2,3-15.8,3L154.9,145.8z M153.7,60.6c-1.7,0-2.8,0.4-3.5,1.1c-0.6,0.7-0.9,2.1-0.9,4.1v56.2c0,2.8,0.5,4.8,1.4,6
					c0.9,1,2.5,1.6,4.8,1.6c11.2,0,16.8-10.5,16.8-31.3c0-11.7-1.4-20.9-4.1-27.2C165.4,63.9,160.6,60.6,153.7,60.6z"/>
				<path class="st1" d="M159.1,43.7c9.2,0,16.5,1.3,21.9,3.8c8,3.8,14,10.1,18,19c3.6,7.8,5.4,17.2,5.4,28c0,5.5-0.7,11-2,16.5
					c-1.3,5.5-3.1,10.2-5.4,14.2c-4.7,8.1-11.1,13.8-19.4,17.1c-4.8,1.9-10,2.9-15.5,2.9l-7.3-0.3l-6.3-0.2
					c-4.9-0.2-9.2-0.3-12.9-0.3h-4.4c-2.5,0-5.4,0.2-8.5,0.4c-2,0.2-3.4,0.3-4.1,0.3c-2.7,0-4.9-0.7-6.6-2.3
					c-1.7-1.5-2.5-3.5-2.5-5.9c0-1.7,0.4-3,1.1-3.9c0.8-1,2-1.7,3.7-2.3c1.6-0.5,2.7-1.3,3.3-2.3c0.6-1.1,1-3.2,1.3-6.4
					c0.3-3.6,0.6-10.7,0.8-21.2c0.3-10.5,0.4-20.9,0.4-31.3c0-4.1-0.3-6.8-0.8-8.1c-0.5-1.4-1.8-2.4-3.7-3.3
					c-2.8-1.3-4.2-3.4-4.2-6.5c0-2.4,1-4.2,2.9-5.5c1.9-1.3,4.6-2,8-2c1.1,0,2.5,0,4,0.1c3.4,0.1,5.9,0.2,7.4,0.2
					c5.8,0,12.3-0.2,19.6-0.7C154.9,43.7,156.8,43.7,159.1,43.7 M155.5,130.3c11.8,0,17.7-10.7,17.7-32.2c0-11.9-1.4-21-4.1-27.6
					c-3-7.2-8.2-10.8-15.4-10.8c-1.9,0-3.3,0.5-4.1,1.4c-0.8,0.9-1.1,2.5-1.1,4.6v56.2c0,3,0.5,5.2,1.6,6.5
					C151.2,129.7,153,130.3,155.5,130.3 M159.1,42c-2.3,0-4.3,0-5.9,0.1c-7.2,0.4-13.8,0.7-19.4,0.7c-1.4,0-3.7-0.1-7.3-0.2
					c-1.5,0-2.9-0.1-4.1-0.1c-3.8,0-6.8,0.8-9,2.3c-2.3,1.6-3.6,4-3.6,6.9c0,3.7,1.8,6.5,5.2,8c1.5,0.6,2.4,1.4,2.8,2.3
					c0.2,0.6,0.7,2.5,0.7,7.5c0,10.2-0.1,20.7-0.4,31.2c-0.2,10.4-0.5,17.5-0.8,21.1c-0.4,3.8-0.9,5.2-1.2,5.8
					c-0.3,0.6-1.1,1.1-2.2,1.4l0,0l0,0c-2,0.7-3.5,1.7-4.5,2.9c-1,1.2-1.5,2.9-1.5,5c0,2.9,1.1,5.3,3.1,7.2c2,1.8,4.6,2.7,7.7,2.7
					c0.8,0,2.3-0.1,4.3-0.3c3.2-0.3,5.9-0.4,8.4-0.4h4.4c3.7,0,8.1,0.1,12.8,0.3l6.3,0.2l7.3,0.3l0,0h0c5.7,0,11.1-1,16.1-3
					c8.6-3.4,15.4-9.4,20.2-17.9c2.3-4.1,4.2-9.1,5.6-14.7c1.4-5.6,2-11.3,2-16.9c0-11-1.9-20.7-5.5-28.7
					c-4.2-9.2-10.5-15.9-18.9-19.9C176.2,43.3,168.6,42,159.1,42L159.1,42z M155.5,128.6c-2,0-3.4-0.4-4.1-1.3
					c-0.5-0.6-1.2-2.1-1.2-5.4V65.7c0-2.3,0.5-3.2,0.7-3.5c0.5-0.6,1.8-0.8,2.8-0.8c6.5,0,11,3.2,13.8,9.8c2.6,6.3,4,15.3,4,26.9
					C171.5,118.6,166.2,128.6,155.5,128.6L155.5,128.6z"/>
			</g>
		</g>
	</g>
</g>
</svg>
