<?xml version="1.0" encoding="utf-8"?>
<!-- Generator: Adobe Illustrator 22.1.0, SVG Export Plug-In . SVG Version: 6.00 Build 0)  -->
<svg version="1.1" id="Livello_1" xmlns="http://www.w3.org/2000/svg" xmlns:xlink="http://www.w3.org/1999/xlink" x="0px" y="0px"
	 viewBox="0 0 85 50" style="enable-background:new 0 0 85 50;" xml:space="preserve">
<style type="text/css">
	.st0{fill:#3DB8DE;}
</style>
<path class="st0" d="M38.42479,26.5333v4.20765H36.5927v-4.16037l-4.13393-6.38239h2.16092l2.91254,4.63314l2.95952-4.63314h2.11395
	L38.42479,26.5333z M57.16842,30.74094V20.19819h7.75113v1.65469H59.0005v2.74207h5.26137v1.65469H59.0005v2.83661h4.41579
	C65.06047,26.95879,66,24.73677,66,22.56203C66,8.99355,46.78661,2.98939,34.29086,8.04802
	c-5.87207,2.36384-10.33484,6.80788-12.87157,12.15017h1.03349v4.39676h5.02649v-4.39676h1.83209v10.54275h-1.83209v-4.44403
	h-4.97951v4.44403h-1.87906v-8.69896c-2.11395,5.57868-2.25487,11.96107,0.14093,17.91795
	c4.03998,10.16454,30.95753,1.79652,41.24537-9.219L57.16842,30.74094C57.16841,30.74094,57.16841,30.74094,57.16842,30.74094z
	 M53.78611,23.74396c0,2.36384-1.87907,3.59304-4.1809,3.59304h-2.06697v3.40394h-1.83209V20.19819h4.13394
	C52.23588,20.19819,53.78611,21.6165,53.78611,23.74396z M49.65218,21.90016h-2.11394v3.78216h2.11394
	c1.4093,0,2.25488-0.80371,2.25488-1.89108v-0.04727C51.90704,22.51476,51.01449,21.90016,49.65218,21.90016z"/>
</svg>
