<?xml version="1.0" encoding="utf-8"?>
<!-- Generator: Adobe Illustrator 22.1.0, SVG Export Plug-In . SVG Version: 6.00 Build 0)  -->
<svg version="1.1" id="Livello_1" xmlns="http://www.w3.org/2000/svg" xmlns:xlink="http://www.w3.org/1999/xlink" x="0px" y="0px"
	 viewBox="0 0 85 50" style="enable-background:new 0 0 85 50;" xml:space="preserve">
<style type="text/css">
	.st0{fill:#09BB07;}
	.st1{fill:#494949;}
</style>
<title>tenpay</title>
<g id="_Group_">
	<path id="_Path_" class="st0" d="M39.09674,20.94505c-0.41661,0.21124-0.92568,0.05532-1.15252-0.353l-0.05733-0.12672
		l-2.38349-5.2286c-0.02686-0.05769-0.04126-0.12041-0.04224-0.18404c0.00124-0.24161,0.1981-0.43647,0.43971-0.43523
		c0.09261,0.00047,0.18267,0.03032,0.25724,0.08525l2.81192,2.00334c0.34418,0.22609,0.77526,0.27536,1.16158,0.13275
		l13.22386-5.88632c-2.36841-2.79382-6.27251-4.61915-10.69253-4.61915c-7.22892,0-13.09714,4.88465-13.09714,10.90976
		c0,3.2856,1.76197,6.24535,4.52562,8.24568c0.22984,0.1642,0.36589,0.42957,0.36507,0.71203
		c-0.00242,0.09415-0.01765,0.18753-0.04526,0.27757l-0.60342,2.19945c-0.03654,0.10325-0.05985,0.2107-0.06939,0.31981
		c0,0.24161,0.19587,0.43748,0.43748,0.43748c0.08932-0.00389,0.1759-0.03205,0.25042-0.08146l2.86622-1.65336
		c0.20916-0.12802,0.44874-0.19781,0.69393-0.20214c0.13087-0.0003,0.26105,0.01902,0.38619,0.05733
		c1.38893,0.3995,2.82694,0.6026,4.27218,0.60341c7.24099,0,13.09111-4.88465,13.09111-10.90976
		c-0.00731-1.79182-0.52424-3.54459-1.49044-5.05361L39.1601,20.89677L39.09674,20.94505z"/>
	<path id="_Path_2" class="st1" d="M28.53394,39.15915l-0.11767,0.42239c-0.15085,0.53402-0.28361,0.99865-0.38619,1.46932
		c-0.09956-0.56118-0.27455-1.22192-0.4586-1.90679l-0.87797-3.31879H26.247l-0.97753,3.34292
		c-0.2293,0.72108-0.41334,1.36674-0.53101,1.88568c-0.09956-0.45256-0.23835-1.00469-0.38619-1.58397l-0.92323-3.64463h-0.50084
		l1.5719,5.95269h0.44653l0.99865-3.4093c0.24137-0.79651,0.39825-1.34562,0.4948-1.8374
		c0.11163,0.61958,0.25564,1.23289,0.43144,1.8374l0.88702,3.41232h0.45558l1.78309-5.9527h-0.48575L28.53394,39.15915z"/>
	<g id="_Group_2">
		<path id="_Compound_Path_" class="st1" d="M33.14706,41.22585c-0.34667,0.15526-0.72475,0.22757-1.10425,0.2112
			c-0.98055,0-1.55078-0.65471-1.55983-1.81025h3.08044v-0.02715c0.01645-0.08647,0.02252-0.17459,0.0181-0.26249
			c0.00117-0.41629-0.10259-0.82616-0.30171-1.19175c-0.27822-0.48106-0.80273-0.76546-1.35769-0.73617
			c-1.14951,0-1.92188,0.92624-1.92188,2.30505c0,1.27924,0.79952,2.13911,1.99127,2.13911
			c0.46144,0.02124,0.92087-0.07313,1.33656-0.27456h0.02414L33.14706,41.22585z M31.86782,37.8437
			c0.30725-0.01819,0.60843,0.09093,0.83272,0.30171c0.25671,0.30019,0.39226,0.68531,0.38015,1.08012H30.5041
			C30.59763,38.58591,31.00493,37.8437,31.86782,37.8437z"/>
	</g>
	<g id="_Group_3">
		<path id="_Path_3" class="st1" d="M37.2171,41.43705c-1.53569,0-2.44987-0.96848-2.44987-2.59167
			c0-1.68353,0.94133-2.68822,2.52228-2.68822c0.40136-0.00725,0.79959,0.07198,1.16761,0.23232l0.22327-0.38317h-0.0181
			c-0.43128-0.19896-0.90448-0.29008-1.3788-0.2655c-1.81025,0-3.01708,1.24907-3.01708,3.10759
			c0,2.23565,1.50854,3.01708,2.82096,3.01708c0.55047,0.01566,1.09788-0.08723,1.60509-0.30171h0.02112l-0.21421-0.36808
			C38.09306,41.3634,37.65656,41.44556,37.2171,41.43705z"/>
	</g>
	<g id="_Group_4">
		<path id="_Path_4" class="st1" d="M41.37161,37.40924c-0.30537-0.00178-0.60485,0.08408-0.86288,0.2474
			c-0.21793,0.12938-0.40038,0.31079-0.531,0.52799v-2.45288h-0.49179v6.04924h0.49179v-2.59167
			c-0.00629-0.1377,0.01105-0.27546,0.05129-0.4073c0.1848-0.5264,0.67341-0.88568,1.23097-0.90512
			c0.9715,0,1.11632,0.88099,1.11632,1.40294v2.51323h0.49178v-2.57357C42.86507,37.51183,41.6341,37.40924,41.37161,37.40924z"/>
	</g>
	<g id="_Group_5">
		<path id="_Path_5" class="st1" d="M49.1768,41.41291c-0.12221,0.02393-0.24658,0.03505-0.3711,0.03319
			c-0.39222,0-0.57626-0.26249-0.57626-0.82668V37.9312h1.20683v-0.41334h-1.20683v-0.94133h-0.4948v0.94133h-0.706v0.41334h0.70599
			v2.60978c-0.03513,0.36297,0.06006,0.7266,0.26852,1.02581c0.18766,0.21143,0.46333,0.32304,0.74522,0.30171
			c0.20645,0.00548,0.41183-0.03149,0.60342-0.10862h0.02414L49.1768,41.41291z"/>
	</g>
	<path id="_Compound_Path_2" class="st1" d="M52.72186,35.78304c-0.42696,0.00042-0.85304,0.03878-1.2732,0.11465h-0.03017v5.87727
		h0.49178V39.2738c0.22308,0.04685,0.45107,0.0661,0.67884,0.05733c0.65391,0.04023,1.29355-0.20265,1.75594-0.66677
		c0.29124-0.33254,0.44164-0.76535,0.41938-1.20683c0.01751-0.44011-0.15116-0.86724-0.46463-1.17666
		C53.85744,35.91812,53.2923,35.73982,52.72186,35.78304z M54.27566,37.51183c0,0.90512-0.60342,1.40294-1.64732,1.40294
		c-0.24088,0.00819-0.48168-0.01823-0.71505-0.07844v-2.57055c0.26092-0.04586,0.52558-0.06708,0.79047-0.06336
		c0.99865,0,1.56888,0.4767,1.56888,1.30941L54.27566,37.51183z"/>
	<g id="_Group_6">
		<path id="_Path_6" class="st1" d="M61.54682,37.52088l-1.02883,2.73649c-0.09655,0.2474-0.17499,0.48877-0.2474,0.69996
			l-0.04827,0.14783c-0.08448-0.27154-0.18706-0.57325-0.28361-0.82366L58.83145,37.542v-0.02414h-0.52195l1.5719,3.9222
			c0.0262,0.05314,0.04352,0.11022,0.05129,0.16896c-0.00643,0.05864-0.02275,0.11577-0.04827,0.16895
			c-0.16101,0.38918-0.3956,0.74363-0.69091,1.04391c-0.20755,0.19847-0.45272,0.35337-0.72108,0.45558h-0.03017l0.22628,0.38921
			c0.25623-0.1033,0.49373-0.24804,0.70298-0.42842c0.54308-0.47368,0.90512-1.20683,1.42406-2.57055l1.27622-3.17397
			L61.54682,37.52088z"/>
	</g>
	<g id="_Group_7">
		<path id="_Compound_Path_3" class="st1" d="M46.67866,41.73875c-0.04641-0.32774-0.06659-0.65865-0.06034-0.9896v-1.64129
			c0-1.10123-0.51291-1.68353-1.4844-1.68353c-0.44205,0.00129-0.87486,0.12674-1.24907,0.36205l0,0l0.19913,0.34697
			c0.29863-0.1981,0.64935-0.3031,1.00771-0.30171l0,0c0.26465-0.01584,0.52454,0.0755,0.72108,0.25343
			c0.22355,0.26017,0.33237,0.59969,0.30171,0.94133v0.07845c-1.02581,0-1.75594,0.20214-2.17531,0.60342
			c-0.25458,0.25204-0.3933,0.59832-0.38317,0.95641c-0.0104,0.6481,0.50656,1.18192,1.15466,1.19232
			c0.03754,0.0006,0.07509-0.0006,0.11251-0.00359c0.52073,0.01242,1.01654-0.22261,1.33656-0.63359l0.05733,0.56118h0.4586
			L46.67866,41.73875z M46.12653,40.39917c0.00102,0.08238-0.0133,0.16423-0.04224,0.24137
			c-0.17472,0.51096-0.66761,0.84366-1.20683,0.81461c-0.42443,0.01995-0.78468-0.30794-0.80464-0.73237
			c-0.00162-0.03446-0.00092-0.06899,0.00209-0.10336c-0.00808-0.243,0.08603-0.47828,0.25947-0.64867
			c0.30171-0.30171,0.84478-0.43446,1.62922-0.43446h0.1599L46.12653,40.39917z"/>
	</g>
	<g id="_Group_8">
		<path id="_Compound_Path_4" class="st1" d="M57.92633,41.73875c-0.0464-0.32774-0.06657-0.65866-0.06034-0.9896v-1.64129
			c0-1.10123-0.51291-1.68353-1.4844-1.68353c-0.42504,0.00132-0.84189,0.117-1.20683,0.3349l0.19913,0.34395
			c0.28934-0.17431,0.62168-0.26419,0.95943-0.25947l0,0c0.26465-0.01584,0.52454,0.0755,0.72108,0.25343
			c0.22355,0.26017,0.33237,0.59969,0.30171,0.94133v0.07845c-1.02279,0-1.75594,0.20214-2.17532,0.60341
			c-0.25457,0.25204-0.3933,0.59832-0.38317,0.95641c-0.0104,0.6481,0.50656,1.18193,1.15466,1.19233
			c0.03754,0.0006,0.07508-0.0006,0.11251-0.00359c0.52338,0.00645,1.01857-0.23666,1.33355-0.65471l0.05733,0.56118h0.47066
			V41.73875z M57.3742,40.39917c0.00102,0.08238-0.0133,0.16423-0.04224,0.24137c-0.17472,0.51096-0.66761,0.84366-1.20683,0.81461
			c-0.42443,0.01995-0.78468-0.30794-0.80464-0.73237c-0.00162-0.03446-0.00092-0.06899,0.00209-0.10336
			c-0.00808-0.243,0.08603-0.47828,0.25947-0.64867c0.30171-0.30171,0.84478-0.43446,1.62922-0.43446h0.1599"/>
	</g>
</g>
</svg>
