<?xml version="1.0" encoding="utf-8"?>
<!-- Generator: Adobe Illustrator 22.1.0, SVG Export Plug-In . SVG Version: 6.00 Build 0)  -->
<svg version="1.1" id="Livello_1" xmlns="http://www.w3.org/2000/svg" xmlns:xlink="http://www.w3.org/1999/xlink" x="0px" y="0px"
	 viewBox="0 0 85 50" style="enable-background:new 0 0 85 50;" xml:space="preserve">
<style type="text/css">
	.st0{fill:#010101;}
	.st1{fill:#ED2224;}
</style>
<title>tenpay</title>
<g>
	<g>
		<path class="st0" d="M38.14615,21.51023c-1.65494,0-3.41781,1.22322-3.41781,1.22322v-0.79149
			c0-0.17989-0.07195-0.25184-0.25184-0.25184h-2.12264c-0.17989,0-0.28782,0.10793-0.28782,0.25184v16.72929
			c0,0.17988,0.07195,0.28782,0.25183,0.28782h2.15862c0.14391,0,0.25184-0.10793,0.25184-0.28782V24.35241
			c0,0,1.00735-0.64758,2.23057-0.64758c1.15126,0,2.08666,0.57563,2.08666,1.76287c0,0.82747,0,13.16757,0,13.16757
			c0,0.17989,0.10793,0.28782,0.28782,0.28782h2.12264c0.17989,0,0.25184-0.14391,0.25184-0.28782V24.71218
			C41.67189,22.62552,40.37672,21.51023,38.14615,21.51023z"/>
		<path class="st0" d="M54.73153,13.1276h-2.12264c-0.17989,0-0.28782,0.10793-0.28782,0.25184v8.41861
			c-0.82747-0.32379-1.54701-0.4677-2.15862-0.4677c-3.45379,0-5.82827,3.30988-5.82827,9.6778
			c0,5.4685,2.30252,8.38263,5.32459,8.38263c1.25919,0,2.3385-0.71954,3.09402-1.4031l0.4677,0.79149
			c0.07195,0.14391,0.14391,0.17988,0.28782,0.17988h1.22321c0.14391,0,0.25184-0.10793,0.25184-0.28782V13.37944
			C54.98337,13.19955,54.91142,13.1276,54.73153,13.1276z M47.14039,30.43252c0-3.52574,1.04333-6.97953,3.13-6.97953
			c0.71954,0,1.4031,0.21586,2.05069,0.75552v12.3401c-0.53965,0.28782-1.18724,0.53965-1.90678,0.53965
			C48.14775,37.12424,47.14039,34.42596,47.14039,30.43252z"/>
		<path class="st0" d="M62.8983,21.36633c-3.56171,0-5.28861,4.64103-5.28861,9.71378c0,5.28861,2.48241,8.2747,5.72034,8.2747
			c1.4031,0,2.80621-0.53965,3.7416-1.07931c0.14391-0.07195,0.17989-0.17988,0.14391-0.32379l-0.28781-1.11528
			c-0.03598-0.14391-0.10793-0.21586-0.28782-0.21586c-0.07195,0-1.22321,0.32379-2.37448,0.32379
			c-2.62632,0-3.84954-2.3385-3.84954-5.43252c0-0.39575,0-0.75552,0-0.75552s1.29517,0.17988,2.08667,0.17988h4.96483v-1.43908
			C67.46738,24.17253,65.63255,21.36633,62.8983,21.36633z M62.71842,28.77758c-0.79149,0-2.23057,0.17989-2.23057,0.17989
			s0.03598-0.57563,0.07195-1.11529c0.32379-2.91413,1.00735-4.38919,2.1946-4.38919c1.04333,0,1.76287,1.51103,1.90678,4.13735
			c0.03598,0.53965,0.03598,1.15126,0.03598,1.15126L62.71842,28.77758L62.71842,28.77758z"/>
		<path class="st0" d="M28.03662,23.52494c-0.79149-1.54701-2.1946-2.23057-3.81356-2.23057
			c-1.04333,0-2.6623,0.39575-3.70563,0.86345c-0.21586,0.10793-0.35977,0.17988-0.35977,0.35977
			c0,0.10793,0.03598,0.21586,0.10793,0.32379l0.71954,1.54701c0.07195,0.17989,0.17989,0.21586,0.28782,0.21586
			s0.17988-0.03598,0.28782-0.10793c1.04333-0.68356,1.83482-1.04333,2.44643-1.04333c0.79149,0,1.36713,0.53966,1.69092,1.33115
			c0.32379,0.75552,0.43172,1.79885,0.43172,2.98609c0,0.14391,0,0.35977,0,0.35977
			c-0.64758-0.43172-1.79885-0.64758-2.37448-0.64758c-3.09402,0-4.74896,2.91413-4.74896,6.04413
			c0,3.38184,1.94276,5.86425,4.28126,5.86425c1.29517,0,2.48241-0.75551,3.2739-1.72689c0,0,0.43172,1.00736,0.4677,1.11529
			c0.07195,0.10793,0.10793,0.17988,0.28782,0.17988h1.25919c0.14391,0,0.25184-0.10793,0.25184-0.28782v-9.71378
			C28.79214,26.58299,28.64823,24.74816,28.03662,23.52494z M26.12984,36.22481c-0.61161,0.57563-1.33115,0.89943-2.01471,0.89943
			c-0.64759,0-1.15126-0.28782-1.58299-0.86345c-0.50368-0.68356-0.71954-1.72689-0.71954-2.91413
			c0-1.83483,0.68356-3.74161,2.12264-3.74161c0.71954,0,1.51103,0.21586,2.15862,0.75552L26.12984,36.22481L26.12984,36.22481z"/>
		<path class="st0" d="M78.72816,21.69012c-0.28781,0-1.69093,0-1.90678,0s-0.32379,0.10793-0.35977,0.25184
			c-0.10793,0.32379-0.9354,2.44643-1.25919,3.30988c-0.25184,0.61161-0.86344,2.41046-0.86344,2.41046h-0.07195
			c0,0-0.4677-1.29517-0.71954-1.94276c-0.21587-0.53965-1.25919-3.30988-1.4031-3.66965
			c-0.07195-0.17988-0.14391-0.35977-0.43172-0.35977c-0.35976,0-1.83482,0-2.08666,0s-0.35977,0.25184-0.28782,0.39574
			c0.07195,0.14391,3.38184,7.69907,3.38184,7.69907s-3.56172,8.45459-3.66965,8.63447
			c-0.10793,0.17989,0.03598,0.4677,0.28782,0.4677s1.51103,0,1.83483,0c0.32379,0,0.43172-0.17988,0.53965-0.43172
			c0.25184-0.71954,0.64759-1.76287,1.18724-3.34586c0.35977-1.04333,0.93541-2.87816,0.93541-2.87816h0.07195
			c0,0,0.64758,1.8708,0.86344,2.48241c0.61161,1.54701,1.36713,3.56172,1.43908,3.77758s0.21587,0.35977,0.43172,0.35977
			c0.21587,0,1.87081,0,2.0507,0c0.21586,0,0.28781-0.21586,0.21586-0.43172c-0.21586-0.4677-2.1946-5.25264-3.56171-8.38263
			c0,0,3.52573-7.807,3.59769-7.98689C79.05196,21.90598,79.01598,21.69012,78.72816,21.69012z"/>
		<path class="st1" d="M21.16502,10.60921h-2.41046c-0.21586,0-0.35977,0.10793-0.35977,0.25184
			c-0.03598,0.14391-3.5977,11.00895-3.84953,11.90837c-0.17988,0.64758-0.79149,2.91413-0.9354,3.45379l-1.25919-3.38184
			c-0.28782-0.9354-3.16597-8.99424-3.23793-9.31803c-0.07195-0.17988-0.14391-0.39575-0.4677-0.39575H6.30653
			c-0.21586,0-0.35977,0.25184-0.28782,0.43172c0.07195,0.10793,4.28126,11.36872,6.00815,15.64998v9.46194
			c0,0.17989,0.07195,0.28782,0.25184,0.28782h2.23057c0.14391,0,0.25184-0.10793,0.25184-0.28782v-8.95826v-0.43172
			c1.4031-3.95747,6.58378-18.13239,6.65574-18.2763C21.48881,10.82507,21.45284,10.60921,21.16502,10.60921z"/>
	</g>
</g>
</svg>
